<svg width="146" height="154" viewBox="0 0 146 154" fill="none" xmlns="http://www.w3.org/2000/svg">
<path d="M73.8848 4.53418L87.8926 31.1621L114.878 17.8535L116.583 17.0127L116.311 18.8945L111.991 48.6699L141.646 53.7656L143.519 54.0869L142.192 55.4482L121.196 77L142.192 98.5518L143.519 99.9131L141.646 100.234L111.991 105.329L116.311 135.105L116.583 136.987L114.878 136.146L87.8926 122.837L73.8848 149.466L73 151.147L72.1152 149.466L58.1064 122.837L31.1221 136.146L29.417 136.987L29.6895 135.105L34.0078 105.329L4.35449 100.234L2.48145 99.9131L3.80762 98.5518L24.8027 77L3.80762 55.4482L2.48145 54.0869L4.35449 53.7656L34.0078 48.6699L29.6895 18.8945L29.417 17.0127L31.1221 17.8535L58.1064 31.1621L72.1152 4.53418L73 2.85254L73.8848 4.53418Z" fill="white" stroke="#3967FF" stroke-width="2"/>
</svg>
